<?xml version="1.0" encoding="utf-8"?>
<!-- Generator: Adobe Illustrator 26.0.3, SVG Export Plug-In . SVG Version: 6.00 Build 0)  -->
<svg version="1.1" id="Layer_1" xmlns="http://www.w3.org/2000/svg" xmlns:xlink="http://www.w3.org/1999/xlink" x="0px" y="0px"
	 viewBox="0 0 210 210" style="enable-background:new 0 0 210 210;" xml:space="preserve">
<style type="text/css">
	.st0{fill-rule:evenodd;clip-rule:evenodd;fill:#CCCCCC;}
</style>
<g id="CA-AB_3_">
	<g>
		<path class="st0" d="M79.5,5L53,109.2l8.9,8.9l5.3,12.5l6.2,9.8l7.1,13.4l7.1,12.5l2.6,8.9l-0.9,9.8l3.7,15.5l25.6,2.9
			c5.7,0.6,12.5,1.4,13.5,1.5c2.1,0.2,1.8,0.2,1.8,0.2l23-184.4c-6.1-0.9-12.4-1.7-18.3-2.7c-11-1.9-31.9-6.3-31.9-6.3L79.5,5z"/>
	</g>
	<g>
		<path class="st0" d="M79.5,5L53,109.2l8.9,8.9l5.3,12.5l6.2,9.8l7.1,13.4l7.1,12.5l2.6,8.9l-0.9,9.8l3.7,15.5l25.6,2.9
			c5.7,0.6,12.5,1.4,13.5,1.5c2.1,0.2,1.8,0.2,1.8,0.2l23-184.4c-6.1-0.9-12.4-1.7-18.3-2.7c-11-1.9-31.9-6.3-31.9-6.3L79.5,5z"/>
	</g>
</g>
</svg>
